<?xml version="1.0" standalone="no"?><!DOCTYPE svg PUBLIC "-//W3C//DTD SVG 1.1//EN" "http://www.w3.org/Graphics/SVG/1.1/DTD/svg11.dtd"><svg t="1594196681120" class="icon" viewBox="0 0 1024 1024" version="1.1" xmlns="http://www.w3.org/2000/svg" p-id="850" xmlns:xlink="http://www.w3.org/1999/xlink" width="200" height="200"><defs><style type="text/css"></style></defs><path d="M745.472 560.7424H455.4752c-38.7072 0-71.8848-26.4192-80.896-64.1024l-52.4288-223.0272c-5.9392-24.7808-0.2048-50.5856 15.7696-70.656s39.5264-31.5392 65.1264-31.5392h395.0592c25.6 0 49.152 11.4688 65.1264 31.5392 15.7696 20.0704 21.504 45.6704 15.7696 70.4512l-52.4288 223.0272a83.21024 83.21024 0 0 1-81.1008 64.3072z m-342.4256-348.16c-12.9024 0-24.9856 5.7344-32.9728 15.9744s-10.8544 23.1424-7.9872 35.84l52.4288 223.0272c4.5056 19.0464 21.2992 32.3584 40.96 32.3584H745.472c19.6608 0 36.4544-13.312 40.96-32.3584l52.4288-223.0272c2.8672-12.4928 0-25.6-7.9872-35.84s-20.0704-15.9744-32.9728-15.9744H403.0464z" p-id="851" fill="#d81e06"></path><path d="M897.4336 642.6624H308.224l-100.5568-381.952-80.896 32.1536c-10.4448 4.096-22.3232-0.8192-26.624-11.4688a20.35712 20.35712 0 0 1 11.4688-26.624l123.904-49.5616 104.2432 396.288h557.6704c11.264 0 20.48 9.216 20.48 20.48s-9.216 20.6848-20.48 20.6848zM426.3936 867.9424c-56.5248 0-102.4-45.8752-102.4-102.4s45.8752-102.4 102.4-102.4 102.4 45.8752 102.4 102.4-45.8752 102.4-102.4 102.4z m0-163.84c-33.792 0-61.44 27.648-61.44 61.44s27.648 61.44 61.44 61.44 61.44-27.648 61.44-61.44-27.4432-61.44-61.44-61.44zM815.5136 867.9424c-56.5248 0-102.4-45.8752-102.4-102.4s45.8752-102.4 102.4-102.4 102.4 45.8752 102.4 102.4-45.8752 102.4-102.4 102.4z m0-163.84c-33.792 0-61.44 27.648-61.44 61.44s27.648 61.44 61.44 61.44 61.44-27.648 61.44-61.44-27.4432-61.44-61.44-61.44z" p-id="852" fill="#d81e06"></path></svg>