<?xml version="1.0" standalone="no"?><!DOCTYPE svg PUBLIC "-//W3C//DTD SVG 1.1//EN" "http://www.w3.org/Graphics/SVG/1.1/DTD/svg11.dtd"><svg t="1597586195678" class="icon" viewBox="0 0 1024 1024" version="1.1" xmlns="http://www.w3.org/2000/svg" p-id="2301" xmlns:xlink="http://www.w3.org/1999/xlink" width="200" height="200"><defs><style type="text/css"></style></defs><path d="M213.3 725.3h597.3V896H213.3z" fill="#A9D8FF" p-id="2302"></path><path d="M744.3 640l54.2 213.3h-573L279.7 640h464.6m33.2-42.7h-531L170.7 896h682.7l-75.9-298.7z" fill="#298DF7" p-id="2303"></path><path d="M719.8 378.5c-32.9 118.2-197.1 292.7-207.4 303.8l-0.4 0.4-0.4-0.4c-10.2-11.1-174.5-185.6-207.4-303.8C326 283.7 410.9 213.3 512 213.3s186 70.4 207.8 165.2z" fill="#A9D8FF" p-id="2304"></path><path d="M512 170.7c45.6 0 88.4 17.8 120.7 50 32.2 32.2 50 75.1 50 120.7 0 13.6-4.9 38.9-28.2 82.7-16.6 31.1-39.9 66.7-69.4 105.9-26.6 35.2-53.4 66.9-73.1 89.3-19.7-22.4-46.5-54.1-73.1-89.3-29.5-39.1-52.9-74.7-69.4-105.9-23.3-43.7-28.2-69.1-28.2-82.7 0-45.6 17.8-88.4 50-120.7 32.3-32.3 75.1-50 120.7-50m0-42.7c-117.8 0-213.3 95.5-213.3 213.3S512 682.7 512 682.7s213.3-223.5 213.3-341.3S629.8 128 512 128z" fill="#298DF7" p-id="2305"></path><path d="M512 405.3c-35.3 0-64-28.7-64-64s28.7-64 64-64 64 28.7 64 64-28.7 64-64 64z" fill="#A9D8FF" p-id="2306"></path><path d="M512 298.7c23.5 0 42.7 19.1 42.7 42.7S535.5 384 512 384s-42.7-19.1-42.7-42.7 19.2-42.6 42.7-42.6m0-42.7c-47.1 0-85.3 38.2-85.3 85.3s38.2 85.3 85.3 85.3 85.3-38.2 85.3-85.3S559.1 256 512 256z" fill="#298DF7" p-id="2307"></path></svg>